<?xml version="1.0" encoding="UTF-8"?>
<svg id="Layer_2" data-name="Layer 2" xmlns="http://www.w3.org/2000/svg" viewBox="0 0 259.96 37.44">
  <defs>
    <style>
      .cls-1 {
        fill: #fff;
      }
    </style>
  </defs>
  <g id="Layer_1-2" data-name="Layer 1">
    <g>
      <path class="cls-1" d="m18.77,2.93c3.26,0,5.85-.08,7.75-.24,1.9-.16,3.38-.37,4.42-.62,1.04-.26,1.74-.54,2.09-.86.35-.32.59-.64.72-.96.06-.16.22-.24.48-.24.32,0,.48.08.48.24-.06.06-.17.3-.31.72-.14.42-.32.92-.53,1.51-.21.59-.42,1.23-.65,1.92-.22.69-.43,1.34-.62,1.97s-.35,1.18-.48,1.66c-.13.48-.19.8-.19.96-.06,0-.14,0-.24.02-.1.02-.19.02-.29.02-.29,0-.43-.1-.43-.29,0-.16.02-.35.05-.58.03-.22.05-.42.05-.58s-.02-.27-.05-.34c-.16-.32-.7-.56-1.61-.72-.91-.16-1.97-.27-3.17-.34-1.2-.06-2.42-.1-3.67-.12-1.25-.02-2.27-.02-3.07-.02-1.22,0-2.42.34-3.62,1.03-1.2.69-2.27,1.67-3.22,2.95-.94,1.28-1.71,2.86-2.3,4.73-.59,1.87-.89,3.99-.89,6.36,0,2.08.23,4,.7,5.76.46,1.76,1.13,3.3,1.99,4.61.86,1.31,1.92,2.34,3.17,3.07,1.25.74,2.66,1.1,4.22,1.1s2.82-.28,3.96-.84c1.14-.56,2.09-1.29,2.86-2.18.77-.9,1.35-1.92,1.75-3.07.4-1.15.6-2.34.6-3.55,0-.86-.1-1.7-.31-2.5-.21-.8-.52-1.51-.94-2.14-.42-.62-.95-1.12-1.61-1.49-.66-.37-1.42-.55-2.28-.55-1.34,0-2.29.3-2.83.89-.54.59-.82,1.22-.82,1.9,0,.61.18,1.14.53,1.61.35.46.82.7,1.39.7.35,0,.53.13.53.38,0,.1-.05.19-.14.29-.16.22-.61.45-1.34.67-.74.22-1.62.34-2.64.34-1.25,0-2.27-.33-3.07-.98-.8-.66-1.2-1.45-1.2-2.38,0-.61.29-1.2.86-1.78s1.37-1.1,2.38-1.56c1.01-.46,2.22-.83,3.62-1.1,1.41-.27,2.93-.41,4.56-.41,1.44,0,2.77.14,3.98.43,1.22.29,2.26.7,3.14,1.22.88.53,1.58,1.17,2.09,1.92.51.75.77,1.59.77,2.52,0,1.41-.45,2.9-1.34,4.49-.9,1.58-2.13,3.04-3.7,4.37-1.57,1.33-3.42,2.42-5.54,3.29-2.13.86-4.41,1.3-6.84,1.3s-4.71-.36-6.65-1.08c-1.94-.72-3.57-1.73-4.9-3.02-1.33-1.3-2.34-2.83-3.05-4.61-.7-1.78-1.06-3.72-1.06-5.83,0-1.6.24-3.1.72-4.51.48-1.41,1.1-2.72,1.87-3.94.77-1.22,1.62-2.32,2.54-3.31.93-.99,1.83-1.85,2.71-2.57.88-.72,1.69-1.29,2.42-1.7.74-.42,1.28-.67,1.63-.77-1.09.03-2.25.08-3.48.14-1.23.06-2.41.15-3.53.26-1.12.11-2.11.26-2.98.43-.86.18-1.46.39-1.78.65-.35.26-.64.59-.86,1.01-.22.42-.42.85-.58,1.3-.26,0-.46-.04-.62-.12-.16-.08-.29-.26-.38-.55.29-.38.6-.99.94-1.82.34-.83.67-1.7,1.01-2.62.34-.91.62-1.75.86-2.52.24-.77.41-1.26.5-1.49.13-.06.27-.1.43-.1.13,0,.26.03.38.1-.1.38-.14.69-.14.91,0,.32.16.53.48.62.93.26,2.09.42,3.48.5,1.39.08,3,.12,4.82.12h6Z"/>
      <path class="cls-1" d="m57.22,32.88c-.35.29-.83.67-1.44,1.15-.61.48-1.31.96-2.11,1.44-.8.48-1.68.89-2.64,1.22s-1.97.5-3.02.5c-1.6,0-3.02-.28-4.27-.84s-2.3-1.31-3.14-2.26c-.85-.94-1.49-2.06-1.92-3.34-.43-1.28-.65-2.64-.65-4.08,0-1.7.26-3.2.77-4.51.51-1.31,1.14-2.46,1.9-3.43.75-.98,1.56-1.79,2.42-2.45.86-.66,1.65-1.18,2.35-1.56.32-.19.73-.4,1.22-.62.5-.22,1.04-.43,1.63-.62.59-.19,1.23-.36,1.92-.5.69-.14,1.4-.22,2.14-.22,1.38,0,2.71.18,4.01.53,1.3.35,2.44.9,3.43,1.66.99.75,1.79,1.72,2.4,2.9.61,1.18.91,2.61.91,4.27,0,1.34-.25,2.61-.74,3.79-.5,1.18-1.08,2.24-1.75,3.17-.67.93-1.34,1.72-1.99,2.38l-1.42,1.42Zm-5.42.77c1.82,0,3.22-.69,4.2-2.06.98-1.38,1.46-3.49,1.46-6.34,0-1.44-.2-2.78-.6-4.01-.4-1.23-.96-2.31-1.68-3.24-.72-.93-1.56-1.66-2.52-2.18-.96-.53-2-.79-3.12-.79-.8,0-1.56.21-2.28.62-.72.42-1.35,1.02-1.9,1.8-.54.78-.98,1.74-1.3,2.86-.32,1.12-.48,2.38-.48,3.79,0,1.5.23,2.85.7,4.03.46,1.18,1.08,2.18,1.85,3,.77.82,1.64,1.44,2.62,1.87.98.43,1.99.65,3.05.65Z"/>
      <path class="cls-1" d="m83.95,32.88c-.29.29-.75.67-1.39,1.15-.64.48-1.39.95-2.26,1.42-.86.46-1.8.86-2.81,1.2-1.01.34-2.02.5-3.05.5s-2.11-.24-3.17-.72c-1.06-.48-2.01-1.18-2.86-2.09-.85-.91-1.53-2.01-2.04-3.29-.51-1.28-.77-2.72-.77-4.32,0-2.08.36-3.97,1.08-5.66.72-1.7,1.78-3.14,3.17-4.32,1.39-1.18,3.09-2.1,5.09-2.74,2-.64,4.3-.96,6.89-.96h1.3c.42,0,.8.02,1.15.05v-1.56c0-.75,0-1.53-.02-2.33-.02-.8-.03-1.54-.05-2.21-.02-.67-.02-1.09-.02-1.25-.13-1.28-.34-2.18-.65-2.69-.3-.51-.92-.77-1.85-.77-.13,0-.2-.14-.22-.43-.02-.29.09-.51.31-.67.26-.16.54-.28.86-.36.32-.08.8-.12,1.44-.12,1.22,0,2.23,0,3.05-.02.82-.02,1.49-.05,2.02-.1.53-.05.95-.11,1.27-.19.32-.08.59-.17.82-.26.16-.03.3,0,.41.12.11.11.19.26.24.43.05.18.06.34.02.5-.03.16-.13.26-.29.29-.35.06-.62.14-.79.22-.18.08-.34.23-.5.46-.16.22-.3.82-.43,1.78-.13.96-.26,2.14-.38,3.55-.13,1.41-.24,2.97-.34,4.68s-.18,3.43-.24,5.16c-.06,1.73-.12,3.41-.17,5.04-.05,1.63-.07,3.06-.07,4.27,0,2.34.26,4.06.77,5.16.51,1.1,1.3,1.66,2.35,1.66.38,0,.81-.06,1.27-.19.46-.13.9-.28,1.3-.46.4-.18.77-.35,1.1-.53.34-.18.58-.33.74-.46.16-.13.3-.05.43.24.13.29.11.48-.05.58-.38.22-.98.55-1.8.98-.82.43-1.72.89-2.71,1.37-1.22.61-2.45,1.15-3.7,1.63s-2.26.72-3.02.72c-.58,0-.97-.1-1.18-.29-.21-.19-.31-.5-.31-.91v-.65c0-.3,0-.62.02-.96.02-.34.02-.66.02-.96v-.7Zm-.62-1.63c.26-.35.45-.76.58-1.22.13-.46.22-1.1.29-1.9.06-.67.1-1.5.1-2.47v-2.57c0-.74,0-1.52-.02-2.35-.02-.83-.04-1.41-.07-1.73-.06-.54-.29-1.06-.67-1.54-.38-.48-.88-.9-1.49-1.25-.61-.35-1.32-.63-2.14-.84-.82-.21-1.67-.31-2.57-.31s-1.68.14-2.45.43c-.77.29-1.43.75-1.99,1.39-.56.64-1,1.46-1.32,2.47-.32,1.01-.48,2.25-.48,3.72s.21,2.87.62,4.1c.42,1.23.99,2.3,1.73,3.19.74.9,1.62,1.59,2.64,2.09,1.02.5,2.14.74,3.36.74.48,0,.93-.07,1.34-.22.42-.14.79-.32,1.13-.53.34-.21.63-.42.89-.65.26-.22.43-.42.53-.58Z"/>
      <path class="cls-1" d="m112.37,32.88c-.29.29-.75.67-1.39,1.15-.64.48-1.39.95-2.26,1.42-.86.46-1.8.86-2.81,1.2-1.01.34-2.02.5-3.05.5s-2.11-.24-3.17-.72c-1.06-.48-2.01-1.18-2.86-2.09-.85-.91-1.53-2.01-2.04-3.29-.51-1.28-.77-2.72-.77-4.32,0-2.08.36-3.97,1.08-5.66.72-1.7,1.78-3.14,3.17-4.32,1.39-1.18,3.09-2.1,5.09-2.74,2-.64,4.3-.96,6.89-.96h1.3c.42,0,.8.02,1.15.05v-1.56c0-.75,0-1.53-.02-2.33-.02-.8-.03-1.54-.05-2.21-.02-.67-.02-1.09-.02-1.25-.13-1.28-.34-2.18-.65-2.69-.3-.51-.92-.77-1.85-.77-.13,0-.2-.14-.22-.43-.02-.29.09-.51.31-.67.26-.16.54-.28.86-.36.32-.08.8-.12,1.44-.12,1.22,0,2.23,0,3.05-.02.82-.02,1.49-.05,2.02-.1.53-.05.95-.11,1.27-.19.32-.08.59-.17.82-.26.16-.03.3,0,.41.12.11.11.19.26.24.43.05.18.06.34.02.5-.03.16-.13.26-.29.29-.35.06-.62.14-.79.22-.18.08-.34.23-.5.46-.16.22-.3.82-.43,1.78-.13.96-.26,2.14-.38,3.55-.13,1.41-.24,2.97-.34,4.68s-.18,3.43-.24,5.16c-.06,1.73-.12,3.41-.17,5.04-.05,1.63-.07,3.06-.07,4.27,0,2.34.26,4.06.77,5.16.51,1.1,1.3,1.66,2.35,1.66.38,0,.81-.06,1.27-.19.46-.13.9-.28,1.3-.46.4-.18.77-.35,1.1-.53.34-.18.58-.33.74-.46.16-.13.3-.05.43.24.13.29.11.48-.05.58-.38.22-.98.55-1.8.98-.82.43-1.72.89-2.71,1.37-1.22.61-2.45,1.15-3.7,1.63s-2.26.72-3.02.72c-.58,0-.97-.1-1.18-.29-.21-.19-.31-.5-.31-.91v-.65c0-.3,0-.62.02-.96.02-.34.02-.66.02-.96v-.7Zm-.62-1.63c.26-.35.45-.76.58-1.22.13-.46.22-1.1.29-1.9.06-.67.1-1.5.1-2.47v-2.57c0-.74,0-1.52-.02-2.35-.02-.83-.04-1.41-.07-1.73-.06-.54-.29-1.06-.67-1.54-.38-.48-.88-.9-1.49-1.25-.61-.35-1.32-.63-2.14-.84-.82-.21-1.67-.31-2.57-.31s-1.68.14-2.45.43c-.77.29-1.43.75-1.99,1.39-.56.64-1,1.46-1.32,2.47-.32,1.01-.48,2.25-.48,3.72s.21,2.87.62,4.1c.42,1.23.99,2.3,1.73,3.19.74.9,1.62,1.59,2.64,2.09,1.02.5,2.14.74,3.36.74.48,0,.93-.07,1.34-.22.42-.14.79-.32,1.13-.53.34-.21.63-.42.89-.65.26-.22.43-.42.53-.58Z"/>
      <path class="cls-1" d="m138.72,31.82c.19.13.29.29.29.48,0,.26-.37.59-1.1,1.01-.77.45-1.78.98-3.05,1.58-1.26.61-2.52,1.14-3.77,1.58-.61.22-1.15.42-1.63.58-.48.16-.91.24-1.3.24-.45,0-1-.1-1.66-.31-.66-.21-1.22-.46-1.7-.74-.38-.26-.69-.46-.91-.6-.22-.14-.34-.3-.34-.46,0-.13.04-.25.12-.36.08-.11.15-.25.22-.41.03-.1.06-.22.1-.38.03-.16.05-.32.05-.48.1-.8.2-1.96.31-3.48.11-1.52.2-3.2.26-5.04.06-1.84.12-3.74.17-5.71.05-1.97.07-3.8.07-5.5,0-2.08,0-3.76-.02-5.04-.02-1.28-.06-2.3-.12-3.07-.1-1.06-.22-1.75-.38-2.09-.16-.34-.34-.58-.53-.74-.22-.19-.44-.31-.65-.36-.21-.05-.4-.08-.58-.1-.18-.02-.32-.02-.43-.02s-.17-.03-.17-.1c0-1.06.45-1.58,1.34-1.58.67,0,1.46,0,2.38.02.91.02,1.67.02,2.28.02.38,0,.79-.02,1.22-.07.43-.05.86-.1,1.27-.14.42-.05.8-.1,1.15-.17.35-.06.61-.13.77-.19.13-.03.23.02.31.14.08.13.13.29.14.48.02.19-.02.37-.1.53-.08.16-.18.26-.31.29-.19.03-.36.05-.5.05s-.39.06-.74.19c-.16.06-.3.26-.43.6s-.24.86-.34,1.58c-.1.72-.19,1.66-.29,2.83-.1,1.17-.19,2.63-.29,4.39-.1,1.41-.17,2.84-.22,4.3-.05,1.46-.1,2.87-.14,4.25-.05,1.38-.08,2.66-.1,3.84-.02,1.18-.02,2.19-.02,3.02,0,.93,0,1.86.02,2.81.02.94.1,1.69.26,2.23.16.51.58.99,1.25,1.44.67.45,1.38.67,2.11.67.58,0,1.17-.08,1.78-.24.61-.16,1.17-.35,1.68-.58.51-.22.97-.45,1.37-.67.4-.22.7-.4.89-.53Z"/>
      <path class="cls-1" d="m157.97,31.1c-.35.38-.9.91-1.63,1.58-.74.67-1.62,1.34-2.66,2.02s-2.2,1.25-3.48,1.73c-1.28.48-2.64.72-4.08.72-1.31,0-2.59-.2-3.84-.6-1.25-.4-2.37-1.01-3.36-1.82-.99-.82-1.78-1.86-2.38-3.12-.59-1.26-.89-2.78-.89-4.54,0-1.44.1-2.68.29-3.72.19-1.04.45-1.95.77-2.74.32-.78.68-1.46,1.08-2.02.4-.56.81-1.06,1.22-1.51.51-.58,1.14-1.12,1.87-1.63.74-.51,1.53-.98,2.38-1.39.85-.42,1.74-.74,2.69-.98.94-.24,1.89-.36,2.86-.36,1.73,0,3.08.29,4.05.86.98.58,1.46,1.38,1.46,2.4,0,.64-.19,1.23-.58,1.78.32-.1.73-.26,1.22-.48.5-.22,1-.46,1.51-.7.51-.24.97-.46,1.37-.65.4-.19.66-.34.79-.43.06-.06.13-.09.21-.07.08.02.12.07.12.17,0,.42-.08.76-.24,1.03-.16.27-.35.49-.58.65-.51.32-1.25.72-2.21,1.2-.96.48-2.03.98-3.19,1.51s-2.38,1.06-3.62,1.58-2.42,1.03-3.53,1.51c-1.1.48-2.06.9-2.88,1.27-.82.37-1.37.63-1.66.79,0,1.09.22,2.1.65,3.05.43.94,1.03,1.77,1.8,2.47.77.7,1.69,1.26,2.76,1.66,1.07.4,2.25.6,3.53.6,1.15,0,2.19-.12,3.12-.36.93-.24,1.71-.51,2.35-.82.64-.3,1.14-.58,1.51-.82.37-.24.57-.36.6-.36.13,0,.26.06.38.17.13.11.19.23.19.36Zm-16.9-7.34c.54-.19,1.16-.42,1.85-.7.69-.27,1.36-.57,2.02-.89.66-.32,1.26-.62,1.8-.91.54-.29.96-.54,1.25-.77.58-.42.86-1.12.86-2.11,0-.38-.07-.78-.21-1.2-.14-.42-.36-.79-.65-1.13s-.64-.61-1.06-.82c-.42-.21-.88-.31-1.39-.31-.45,0-.93.15-1.44.46-.51.3-.99.8-1.44,1.49-.45.69-.82,1.6-1.13,2.74-.3,1.14-.46,2.52-.46,4.15Z"/>
      <path class="cls-1" d="m180.24,16.32c-.35.29-.77.65-1.25,1.08-.48.43-.98.85-1.51,1.25-.53.4-1.06.74-1.61,1.03s-1.07.43-1.58.43c-.45,0-.85-.1-1.2-.31-.35-.21-.68-.43-.98-.67-.3-.24-.6-.46-.89-.67-.29-.21-.59-.31-.91-.31-.86,0-1.59.35-2.18,1.06-.59.7-1.07,1.6-1.44,2.69-.37,1.09-.64,2.27-.82,3.55-.18,1.28-.26,2.51-.26,3.7,0,.99.04,1.8.12,2.42.08.62.2,1.12.36,1.49.16.37.38.62.65.74.27.13.6.19.98.19.42,0,.86-.06,1.34-.19.1-.03.17.03.22.19.05.16.07.29.07.38,0,.06-.05.14-.14.22-.1.08-.16.12-.19.12-.71.29-1.42.6-2.16.94-.74.34-1.34.62-1.82.84-.45.19-.98.4-1.61.62-.62.22-1.16.34-1.61.34-.51,0-.94-.08-1.27-.24-.34-.16-.5-.32-.5-.48s.04-.3.12-.43c.08-.13.15-.37.22-.72.06-.48.14-1.05.22-1.7.08-.66.16-1.37.24-2.14.08-.77.14-1.56.19-2.38.05-.82.07-1.62.07-2.42,0-1.79-.06-3.31-.17-4.56s-.31-2.26-.6-3.02-.68-1.32-1.18-1.66c-.5-.34-1.13-.5-1.9-.5h-.43c-.13,0-.26.02-.38.05-.19,0-.29-.1-.29-.29s.1-.34.29-.43c.35-.22.9-.55,1.63-.98.74-.43,1.5-.85,2.28-1.25.78-.4,1.54-.76,2.28-1.08.74-.32,1.28-.48,1.63-.48.42,0,.77.14,1.06.41.29.27.5.62.65,1.03.14.42.25.89.31,1.42.06.53.1,1.05.1,1.56,0,.38,0,.78-.02,1.2-.02.42-.02.86-.02,1.34,1.44-2.11,2.74-3.75,3.89-4.92,1.15-1.17,2.24-1.75,3.26-1.75.38,0,.76.16,1.13.48.37.32.76.68,1.18,1.08.42.4.85.76,1.3,1.08s.91.48,1.39.48c.42,0,.72-.05.91-.14s.35-.18.48-.24c.26,0,.38.18.38.53v.05Z"/>
      <path class="cls-1" d="m178.51,2.21c0-.7.17-1.12.5-1.25s.7-.19,1.08-.19h2.95c.88,0,1.68,0,2.4-.02.72-.02,1.39-.06,2.02-.14.62-.08,1.21-.22,1.75-.41.26-.1.39-.05.41.14.02.19.02.37.02.53,0,.19-.1.34-.29.46-.19.11-.41.2-.65.26-.24.06-.47.11-.7.14-.22.03-.37.05-.43.05-.1.32-.21,1.05-.34,2.18-.13,1.14-.26,2.48-.41,4.03-.14,1.55-.26,3.2-.36,4.94-.1,1.74-.14,3.38-.14,4.92.29-.32.77-.77,1.44-1.34s1.46-1.14,2.38-1.7c.91-.56,1.93-1.05,3.05-1.46,1.12-.42,2.29-.62,3.5-.62s2.34.19,3.38.58c1.04.38,1.94.94,2.71,1.68.77.74,1.37,1.64,1.8,2.71.43,1.07.65,2.28.65,3.62,0,1.12-.22,2.28-.65,3.48-.43,1.2-1.02,2.38-1.78,3.55-.75,1.17-1.66,2.28-2.71,3.34-1.06,1.06-2.2,1.98-3.43,2.78-1.23.8-2.54,1.44-3.94,1.92-1.39.48-2.79.72-4.2.72-1.6,0-2.91-.18-3.94-.53s-1.84-.75-2.45-1.2c-.61-.45-1.04-.87-1.3-1.27-.26-.4-.4-.65-.43-.74.1-.29.21-1.06.34-2.33.13-1.26.25-2.82.36-4.66.11-1.84.22-3.86.31-6.07.1-2.21.14-4.37.14-6.48,0-1.86-.03-3.42-.1-4.68-.06-1.26-.15-2.3-.26-3.12-.11-.82-.25-1.46-.41-1.92-.16-.46-.34-.82-.53-1.08-.38-.48-.8-.74-1.25-.77l-.53-.05Zm7.73,19.44c-.06.54-.11,1.2-.14,1.97-.03.77-.05,1.54-.05,2.3s.02,1.46.05,2.06c.03.61.06.99.1,1.15.1.48.32.99.67,1.54.35.54.82,1.05,1.39,1.51.58.46,1.24.85,1.99,1.15.75.3,1.58.46,2.47.46,2.02,0,3.69-.7,5.02-2.11,1.33-1.41,1.99-3.57,1.99-6.48,0-1.63-.23-3.02-.7-4.15-.46-1.14-1.05-2.05-1.75-2.74-.7-.69-1.46-1.19-2.28-1.51-.82-.32-1.56-.48-2.23-.48-.93,0-1.7.14-2.33.41-.62.27-1.18.58-1.66.94-.8.61-1.39,1.22-1.78,1.82-.38.61-.64,1.33-.77,2.16Z"/>
      <path class="cls-1" d="m226.99,32.88c-.35.29-.83.67-1.44,1.15-.61.48-1.31.96-2.11,1.44s-1.68.89-2.64,1.22-1.97.5-3.02.5c-1.6,0-3.02-.28-4.27-.84-1.25-.56-2.3-1.31-3.14-2.26-.85-.94-1.49-2.06-1.92-3.34-.43-1.28-.65-2.64-.65-4.08,0-1.7.26-3.2.77-4.51.51-1.31,1.14-2.46,1.9-3.43.75-.98,1.56-1.79,2.42-2.45.86-.66,1.65-1.18,2.35-1.56.32-.19.73-.4,1.22-.62.5-.22,1.04-.43,1.63-.62.59-.19,1.23-.36,1.92-.5.69-.14,1.4-.22,2.14-.22,1.38,0,2.71.18,4.01.53,1.3.35,2.44.9,3.43,1.66.99.75,1.79,1.72,2.4,2.9.61,1.18.91,2.61.91,4.27,0,1.34-.25,2.61-.74,3.79-.5,1.18-1.08,2.24-1.75,3.17-.67.93-1.34,1.72-1.99,2.38l-1.42,1.42Zm-5.42.77c1.82,0,3.22-.69,4.2-2.06.98-1.38,1.46-3.49,1.46-6.34,0-1.44-.2-2.78-.6-4.01-.4-1.23-.96-2.31-1.68-3.24-.72-.93-1.56-1.66-2.52-2.18-.96-.53-2-.79-3.12-.79-.8,0-1.56.21-2.28.62-.72.42-1.35,1.02-1.9,1.8-.54.78-.98,1.74-1.3,2.86-.32,1.12-.48,2.38-.48,3.79,0,1.5.23,2.85.7,4.03.46,1.18,1.08,2.18,1.85,3,.77.82,1.64,1.44,2.62,1.87.98.43,1.99.65,3.05.65Z"/>
      <path class="cls-1" d="m258.09,30.05c.06-.06.12-.06.17.02.05.08.08.19.1.34.02.14,0,.3-.02.46-.03.16-.1.29-.19.38-.64.61-1.44,1.25-2.4,1.92-.96.67-1.95,1.3-2.98,1.87-.29.16-.69.37-1.2.62-.51.26-1.08.5-1.7.74-.62.24-1.26.45-1.92.62-.66.18-1.27.26-1.85.26-1.15,0-2.24-.22-3.26-.67-1.02-.45-1.92-1.06-2.69-1.85-.77-.78-1.37-1.72-1.8-2.81-.43-1.09-.65-2.27-.65-3.55,0-1.38.19-2.67.58-3.89.38-1.22.82-2.3,1.32-3.26s.97-1.77,1.42-2.42c.45-.66.75-1.14.91-1.46-.61-.03-1.16-.06-1.66-.07-.5-.02-.97-.02-1.42-.02-1.02,0-1.89,0-2.59.02-.7.02-1.33.09-1.87.22-.26.06-.5.19-.72.38-.22.19-.42.34-.58.43-.06-.06-.15-.15-.26-.26-.11-.11-.17-.23-.17-.36,0-.06.02-.11.05-.14,0-.03.21-.22.62-.55s.94-.74,1.56-1.2,1.31-.98,2.06-1.54c.75-.56,1.47-1.08,2.16-1.56.69-.48,1.28-.89,1.78-1.22s.82-.54.98-.6c.19-.06.38-.03.58.1.19.13.26.22.19.29-.1.06-.24.18-.43.36-.19.18-.26.33-.19.46.35.29.96.54,1.82.77.86.22,1.84.41,2.93.55s2.21.26,3.36.34c1.15.08,2.19.12,3.12.12,1.38,0,2.48-.04,3.31-.12.83-.08,1.52-.18,2.06-.31.51-.13.85-.22,1.01-.29.03,0,.1.05.19.14.1.1.14.21.14.34,0,.06-.23.22-.7.48-.46.26-.94.53-1.42.82-.29.16-.63.37-1.03.62-.4.26-.83.5-1.3.74-.46.24-.95.46-1.46.65-.51.19-1.01.3-1.49.34-.48.06-1.04.11-1.68.14-.64.03-1.31.06-2.02.07-.7.02-1.42.03-2.14.05s-1.38.02-1.99.02c-.1.16-.25.42-.46.79-.21.37-.41.84-.6,1.42-.19.58-.37,1.23-.53,1.97-.16.74-.24,1.54-.24,2.4,0,1.31.2,2.52.6,3.62.4,1.1.96,2.06,1.68,2.86.72.8,1.58,1.42,2.57,1.87.99.45,2.06.67,3.22.67.67,0,1.32-.08,1.94-.24.62-.16,1.22-.37,1.78-.62.56-.26,1.08-.54,1.56-.84.48-.3.9-.6,1.25-.89l.58-.53Z"/>
    </g>
  </g>
</svg>